<mxfile host="app.diagrams.net" agent="Mozilla/5.0 (Windows NT 10.0; Win64; x64) AppleWebKit/537.36 (KHTML, like Gecko) Chrome/129.0.0.0 Safari/537.36" version="24.8.0">
  <diagram name="Page-1" id="jvAFJe7k1WTt0ilwp3rd">
    <mxGraphModel dx="-1460" dy="2330" grid="1" gridSize="10" guides="1" tooltips="1" connect="1" arrows="1" fold="1" page="1" pageScale="1" pageWidth="850" pageHeight="1100" math="0" shadow="0">
      <root>
        <mxCell id="0" />
        <mxCell id="1" parent="0" />
        <mxCell id="aGmHzA7aYkXEzpq6hzWh-1" value="" style="group" vertex="1" connectable="0" parent="1">
          <mxGeometry x="4695" y="-990" width="370" height="880.5" as="geometry" />
        </mxCell>
        <mxCell id="aGmHzA7aYkXEzpq6hzWh-2" style="edgeStyle=orthogonalEdgeStyle;rounded=0;orthogonalLoop=1;jettySize=auto;html=1;exitX=0.5;exitY=1;exitDx=0;exitDy=0;" edge="1" parent="aGmHzA7aYkXEzpq6hzWh-1" source="aGmHzA7aYkXEzpq6hzWh-4" target="aGmHzA7aYkXEzpq6hzWh-18">
          <mxGeometry relative="1" as="geometry" />
        </mxCell>
        <mxCell id="aGmHzA7aYkXEzpq6hzWh-3" style="edgeStyle=orthogonalEdgeStyle;rounded=0;orthogonalLoop=1;jettySize=auto;html=1;exitX=1;exitY=0.5;exitDx=0;exitDy=0;entryX=1;entryY=0.5;entryDx=0;entryDy=0;" edge="1" parent="aGmHzA7aYkXEzpq6hzWh-1" source="aGmHzA7aYkXEzpq6hzWh-4" target="aGmHzA7aYkXEzpq6hzWh-10">
          <mxGeometry relative="1" as="geometry">
            <Array as="points">
              <mxPoint x="360" y="340" />
              <mxPoint x="360" y="630" />
            </Array>
          </mxGeometry>
        </mxCell>
        <mxCell id="aGmHzA7aYkXEzpq6hzWh-4" value="while&amp;nbsp;&lt;span style=&quot;background-color: initial;&quot;&gt;choices&amp;nbsp;&lt;/span&gt;&lt;div&gt;&lt;span style=&quot;background-color: initial;&quot;&gt;&amp;lt; 1 || &amp;gt; 10&lt;/span&gt;&lt;/div&gt;" style="rhombus;whiteSpace=wrap;html=1;container=0;" vertex="1" parent="aGmHzA7aYkXEzpq6hzWh-1">
          <mxGeometry x="182" y="300" width="150" height="80" as="geometry" />
        </mxCell>
        <mxCell id="aGmHzA7aYkXEzpq6hzWh-5" style="edgeStyle=orthogonalEdgeStyle;rounded=0;orthogonalLoop=1;jettySize=auto;html=1;exitX=0.5;exitY=1;exitDx=0;exitDy=0;entryX=0.5;entryY=0;entryDx=0;entryDy=0;" edge="1" parent="aGmHzA7aYkXEzpq6hzWh-1" source="aGmHzA7aYkXEzpq6hzWh-6" target="aGmHzA7aYkXEzpq6hzWh-22">
          <mxGeometry relative="1" as="geometry" />
        </mxCell>
        <mxCell id="aGmHzA7aYkXEzpq6hzWh-6" value="Output intro -&amp;nbsp;&lt;div&gt;ask for size&lt;/div&gt;" style="shape=parallelogram;perimeter=parallelogramPerimeter;whiteSpace=wrap;html=1;fixedSize=1;rounded=0;" vertex="1" parent="aGmHzA7aYkXEzpq6hzWh-1">
          <mxGeometry x="186" y="60" width="146" height="60" as="geometry" />
        </mxCell>
        <mxCell id="aGmHzA7aYkXEzpq6hzWh-7" style="edgeStyle=orthogonalEdgeStyle;rounded=0;orthogonalLoop=1;jettySize=auto;html=1;exitX=0.5;exitY=1;exitDx=0;exitDy=0;entryX=0.5;entryY=0;entryDx=0;entryDy=0;" edge="1" parent="aGmHzA7aYkXEzpq6hzWh-1" source="aGmHzA7aYkXEzpq6hzWh-8" target="aGmHzA7aYkXEzpq6hzWh-6">
          <mxGeometry relative="1" as="geometry" />
        </mxCell>
        <mxCell id="aGmHzA7aYkXEzpq6hzWh-8" value="Start Prompt" style="ellipse;whiteSpace=wrap;html=1;" vertex="1" parent="aGmHzA7aYkXEzpq6hzWh-1">
          <mxGeometry x="199" width="120" height="40" as="geometry" />
        </mxCell>
        <mxCell id="aGmHzA7aYkXEzpq6hzWh-9" style="edgeStyle=orthogonalEdgeStyle;rounded=0;orthogonalLoop=1;jettySize=auto;html=1;exitX=0.5;exitY=1;exitDx=0;exitDy=0;entryX=0.5;entryY=0;entryDx=0;entryDy=0;" edge="1" parent="aGmHzA7aYkXEzpq6hzWh-1" source="aGmHzA7aYkXEzpq6hzWh-10" target="aGmHzA7aYkXEzpq6hzWh-14">
          <mxGeometry relative="1" as="geometry" />
        </mxCell>
        <mxCell id="aGmHzA7aYkXEzpq6hzWh-10" value="Output -&lt;div&gt;ask for tries&lt;/div&gt;" style="shape=parallelogram;perimeter=parallelogramPerimeter;whiteSpace=wrap;html=1;fixedSize=1;rounded=0;" vertex="1" parent="aGmHzA7aYkXEzpq6hzWh-1">
          <mxGeometry x="184" y="600" width="146" height="60" as="geometry" />
        </mxCell>
        <mxCell id="aGmHzA7aYkXEzpq6hzWh-11" style="edgeStyle=orthogonalEdgeStyle;rounded=0;orthogonalLoop=1;jettySize=auto;html=1;exitX=0.5;exitY=1;exitDx=0;exitDy=0;entryX=0.5;entryY=0;entryDx=0;entryDy=0;" edge="1" parent="aGmHzA7aYkXEzpq6hzWh-1" source="aGmHzA7aYkXEzpq6hzWh-12" target="aGmHzA7aYkXEzpq6hzWh-26">
          <mxGeometry relative="1" as="geometry" />
        </mxCell>
        <mxCell id="aGmHzA7aYkXEzpq6hzWh-12" value="cin.ignore()&lt;div&gt;cout &amp;gt;&amp;gt; endl&lt;/div&gt;" style="shape=parallelogram;perimeter=parallelogramPerimeter;whiteSpace=wrap;html=1;fixedSize=1;rounded=0;" vertex="1" parent="aGmHzA7aYkXEzpq6hzWh-1">
          <mxGeometry x="184" y="760" width="146" height="60" as="geometry" />
        </mxCell>
        <mxCell id="aGmHzA7aYkXEzpq6hzWh-13" style="edgeStyle=orthogonalEdgeStyle;rounded=0;orthogonalLoop=1;jettySize=auto;html=1;exitX=0.5;exitY=1;exitDx=0;exitDy=0;entryX=0.5;entryY=0;entryDx=0;entryDy=0;" edge="1" parent="aGmHzA7aYkXEzpq6hzWh-1" source="aGmHzA7aYkXEzpq6hzWh-14" target="aGmHzA7aYkXEzpq6hzWh-12">
          <mxGeometry relative="1" as="geometry" />
        </mxCell>
        <mxCell id="aGmHzA7aYkXEzpq6hzWh-14" value="Read in tries" style="shape=parallelogram;perimeter=parallelogramPerimeter;whiteSpace=wrap;html=1;fixedSize=1;rounded=0;" vertex="1" parent="aGmHzA7aYkXEzpq6hzWh-1">
          <mxGeometry x="184" y="680" width="146" height="60" as="geometry" />
        </mxCell>
        <mxCell id="aGmHzA7aYkXEzpq6hzWh-15" style="edgeStyle=orthogonalEdgeStyle;rounded=0;orthogonalLoop=1;jettySize=auto;html=1;exitX=0.5;exitY=0;exitDx=0;exitDy=0;" edge="1" parent="aGmHzA7aYkXEzpq6hzWh-1" source="aGmHzA7aYkXEzpq6hzWh-16">
          <mxGeometry relative="1" as="geometry">
            <mxPoint x="180" y="340" as="targetPoint" />
            <Array as="points">
              <mxPoint x="93" y="340" />
            </Array>
          </mxGeometry>
        </mxCell>
        <mxCell id="aGmHzA7aYkXEzpq6hzWh-16" value="Ask for reentry" style="shape=parallelogram;perimeter=parallelogramPerimeter;whiteSpace=wrap;html=1;fixedSize=1;rounded=0;" vertex="1" parent="aGmHzA7aYkXEzpq6hzWh-1">
          <mxGeometry x="20" y="490" width="146" height="60" as="geometry" />
        </mxCell>
        <mxCell id="aGmHzA7aYkXEzpq6hzWh-17" style="edgeStyle=orthogonalEdgeStyle;rounded=0;orthogonalLoop=1;jettySize=auto;html=1;exitX=0.5;exitY=1;exitDx=0;exitDy=0;entryX=0.5;entryY=0;entryDx=0;entryDy=0;" edge="1" parent="aGmHzA7aYkXEzpq6hzWh-1" source="aGmHzA7aYkXEzpq6hzWh-18" target="aGmHzA7aYkXEzpq6hzWh-25">
          <mxGeometry relative="1" as="geometry" />
        </mxCell>
        <mxCell id="aGmHzA7aYkXEzpq6hzWh-18" value="Read in choices" style="shape=parallelogram;perimeter=parallelogramPerimeter;whiteSpace=wrap;html=1;fixedSize=1;rounded=0;" vertex="1" parent="aGmHzA7aYkXEzpq6hzWh-1">
          <mxGeometry x="184" y="400" width="146" height="60" as="geometry" />
        </mxCell>
        <mxCell id="aGmHzA7aYkXEzpq6hzWh-19" style="edgeStyle=orthogonalEdgeStyle;rounded=0;orthogonalLoop=1;jettySize=auto;html=1;exitX=0.5;exitY=1;exitDx=0;exitDy=0;entryX=0.5;entryY=0;entryDx=0;entryDy=0;" edge="1" parent="aGmHzA7aYkXEzpq6hzWh-1" source="aGmHzA7aYkXEzpq6hzWh-20" target="aGmHzA7aYkXEzpq6hzWh-4">
          <mxGeometry relative="1" as="geometry" />
        </mxCell>
        <mxCell id="aGmHzA7aYkXEzpq6hzWh-20" value="Output desc -&lt;div&gt;ask for choices&lt;/div&gt;" style="shape=parallelogram;perimeter=parallelogramPerimeter;whiteSpace=wrap;html=1;fixedSize=1;rounded=0;" vertex="1" parent="aGmHzA7aYkXEzpq6hzWh-1">
          <mxGeometry x="184" y="220" width="146" height="60" as="geometry" />
        </mxCell>
        <mxCell id="aGmHzA7aYkXEzpq6hzWh-21" style="edgeStyle=orthogonalEdgeStyle;rounded=0;orthogonalLoop=1;jettySize=auto;html=1;exitX=0.5;exitY=1;exitDx=0;exitDy=0;entryX=0.5;entryY=0;entryDx=0;entryDy=0;" edge="1" parent="aGmHzA7aYkXEzpq6hzWh-1" source="aGmHzA7aYkXEzpq6hzWh-22" target="aGmHzA7aYkXEzpq6hzWh-20">
          <mxGeometry relative="1" as="geometry" />
        </mxCell>
        <mxCell id="aGmHzA7aYkXEzpq6hzWh-22" value="input size" style="shape=parallelogram;perimeter=parallelogramPerimeter;whiteSpace=wrap;html=1;fixedSize=1;rounded=0;" vertex="1" parent="aGmHzA7aYkXEzpq6hzWh-1">
          <mxGeometry x="186" y="140" width="146" height="60" as="geometry" />
        </mxCell>
        <mxCell id="aGmHzA7aYkXEzpq6hzWh-23" style="edgeStyle=orthogonalEdgeStyle;rounded=0;orthogonalLoop=1;jettySize=auto;html=1;exitX=0;exitY=0.5;exitDx=0;exitDy=0;entryX=1;entryY=0.5;entryDx=0;entryDy=0;" edge="1" parent="aGmHzA7aYkXEzpq6hzWh-1" source="aGmHzA7aYkXEzpq6hzWh-25" target="aGmHzA7aYkXEzpq6hzWh-16">
          <mxGeometry relative="1" as="geometry" />
        </mxCell>
        <mxCell id="aGmHzA7aYkXEzpq6hzWh-24" style="edgeStyle=orthogonalEdgeStyle;rounded=0;orthogonalLoop=1;jettySize=auto;html=1;exitX=0.5;exitY=1;exitDx=0;exitDy=0;" edge="1" parent="aGmHzA7aYkXEzpq6hzWh-1" source="aGmHzA7aYkXEzpq6hzWh-25">
          <mxGeometry relative="1" as="geometry">
            <mxPoint x="180" y="340" as="targetPoint" />
            <Array as="points">
              <mxPoint x="257" y="580" />
              <mxPoint y="580" />
              <mxPoint y="340" />
            </Array>
          </mxGeometry>
        </mxCell>
        <mxCell id="aGmHzA7aYkXEzpq6hzWh-25" value="if choices&lt;div&gt;&amp;lt; 1 || &amp;gt; 10&lt;/div&gt;" style="rhombus;whiteSpace=wrap;html=1;container=0;" vertex="1" parent="aGmHzA7aYkXEzpq6hzWh-1">
          <mxGeometry x="182" y="480" width="150" height="80" as="geometry" />
        </mxCell>
        <mxCell id="aGmHzA7aYkXEzpq6hzWh-26" value="End Prompt" style="ellipse;whiteSpace=wrap;html=1;" vertex="1" parent="aGmHzA7aYkXEzpq6hzWh-1">
          <mxGeometry x="197" y="840.5" width="120" height="40" as="geometry" />
        </mxCell>
        <mxCell id="aGmHzA7aYkXEzpq6hzWh-27" value="No" style="text;html=1;strokeColor=none;fillColor=none;align=center;verticalAlign=middle;whiteSpace=wrap;rounded=0;" vertex="1" parent="aGmHzA7aYkXEzpq6hzWh-1">
          <mxGeometry x="210" y="550" width="60" height="30" as="geometry" />
        </mxCell>
        <mxCell id="aGmHzA7aYkXEzpq6hzWh-28" value="Yes" style="text;html=1;strokeColor=none;fillColor=none;align=center;verticalAlign=middle;whiteSpace=wrap;rounded=0;" vertex="1" parent="aGmHzA7aYkXEzpq6hzWh-1">
          <mxGeometry x="150" y="490" width="60" height="30" as="geometry" />
        </mxCell>
        <mxCell id="aGmHzA7aYkXEzpq6hzWh-29" value="No" style="text;html=1;strokeColor=none;fillColor=none;align=center;verticalAlign=middle;whiteSpace=wrap;rounded=0;" vertex="1" parent="aGmHzA7aYkXEzpq6hzWh-1">
          <mxGeometry x="310" y="310" width="60" height="30" as="geometry" />
        </mxCell>
        <mxCell id="aGmHzA7aYkXEzpq6hzWh-30" value="Yes" style="text;html=1;strokeColor=none;fillColor=none;align=center;verticalAlign=middle;whiteSpace=wrap;rounded=0;" vertex="1" parent="aGmHzA7aYkXEzpq6hzWh-1">
          <mxGeometry x="210" y="370" width="60" height="30" as="geometry" />
        </mxCell>
        <mxCell id="aGmHzA7aYkXEzpq6hzWh-31" value="" style="group" vertex="1" connectable="0" parent="1">
          <mxGeometry x="4285" y="-729.75" width="330" height="360" as="geometry" />
        </mxCell>
        <mxCell id="aGmHzA7aYkXEzpq6hzWh-32" style="edgeStyle=orthogonalEdgeStyle;rounded=0;orthogonalLoop=1;jettySize=auto;html=1;exitX=0.5;exitY=1;exitDx=0;exitDy=0;entryX=0.5;entryY=0;entryDx=0;entryDy=0;" edge="1" parent="aGmHzA7aYkXEzpq6hzWh-31" source="aGmHzA7aYkXEzpq6hzWh-33" target="aGmHzA7aYkXEzpq6hzWh-35">
          <mxGeometry relative="1" as="geometry" />
        </mxCell>
        <mxCell id="aGmHzA7aYkXEzpq6hzWh-33" value="Start Generate" style="ellipse;whiteSpace=wrap;html=1;" vertex="1" parent="aGmHzA7aYkXEzpq6hzWh-31">
          <mxGeometry x="160" width="120" height="40" as="geometry" />
        </mxCell>
        <mxCell id="aGmHzA7aYkXEzpq6hzWh-34" style="edgeStyle=orthogonalEdgeStyle;rounded=0;orthogonalLoop=1;jettySize=auto;html=1;entryX=0.5;entryY=0;entryDx=0;entryDy=0;" edge="1" parent="aGmHzA7aYkXEzpq6hzWh-31" source="aGmHzA7aYkXEzpq6hzWh-35" target="aGmHzA7aYkXEzpq6hzWh-39">
          <mxGeometry relative="1" as="geometry" />
        </mxCell>
        <mxCell id="aGmHzA7aYkXEzpq6hzWh-35" value="i = 0" style="rounded=0;whiteSpace=wrap;html=1;" vertex="1" parent="aGmHzA7aYkXEzpq6hzWh-31">
          <mxGeometry x="160" y="60" width="120" height="60" as="geometry" />
        </mxCell>
        <mxCell id="aGmHzA7aYkXEzpq6hzWh-36" style="edgeStyle=orthogonalEdgeStyle;rounded=0;orthogonalLoop=1;jettySize=auto;html=1;exitX=0;exitY=0.5;exitDx=0;exitDy=0;" edge="1" parent="aGmHzA7aYkXEzpq6hzWh-31" source="aGmHzA7aYkXEzpq6hzWh-39">
          <mxGeometry relative="1" as="geometry">
            <mxPoint x="144.81481481481478" y="179.66666666666652" as="targetPoint" />
          </mxGeometry>
        </mxCell>
        <mxCell id="aGmHzA7aYkXEzpq6hzWh-37" style="edgeStyle=orthogonalEdgeStyle;rounded=0;orthogonalLoop=1;jettySize=auto;html=1;exitX=0.5;exitY=1;exitDx=0;exitDy=0;entryX=0.5;entryY=0;entryDx=0;entryDy=0;" edge="1" parent="aGmHzA7aYkXEzpq6hzWh-31" source="aGmHzA7aYkXEzpq6hzWh-39" target="aGmHzA7aYkXEzpq6hzWh-43">
          <mxGeometry relative="1" as="geometry" />
        </mxCell>
        <mxCell id="aGmHzA7aYkXEzpq6hzWh-38" style="edgeStyle=orthogonalEdgeStyle;rounded=0;orthogonalLoop=1;jettySize=auto;html=1;exitX=1;exitY=0.5;exitDx=0;exitDy=0;entryX=1;entryY=0.5;entryDx=0;entryDy=0;" edge="1" parent="aGmHzA7aYkXEzpq6hzWh-31" source="aGmHzA7aYkXEzpq6hzWh-39" target="aGmHzA7aYkXEzpq6hzWh-44">
          <mxGeometry relative="1" as="geometry" />
        </mxCell>
        <mxCell id="aGmHzA7aYkXEzpq6hzWh-39" value="i &amp;lt; size" style="rhombus;whiteSpace=wrap;html=1;" vertex="1" parent="aGmHzA7aYkXEzpq6hzWh-31">
          <mxGeometry x="145" y="140" width="150" height="80" as="geometry" />
        </mxCell>
        <mxCell id="aGmHzA7aYkXEzpq6hzWh-40" style="edgeStyle=orthogonalEdgeStyle;rounded=0;orthogonalLoop=1;jettySize=auto;html=1;entryX=0;entryY=0.5;entryDx=0;entryDy=0;" edge="1" parent="aGmHzA7aYkXEzpq6hzWh-31" source="aGmHzA7aYkXEzpq6hzWh-41" target="aGmHzA7aYkXEzpq6hzWh-39">
          <mxGeometry relative="1" as="geometry" />
        </mxCell>
        <mxCell id="aGmHzA7aYkXEzpq6hzWh-41" value="increment i" style="rounded=0;whiteSpace=wrap;html=1;" vertex="1" parent="aGmHzA7aYkXEzpq6hzWh-31">
          <mxGeometry y="150" width="120" height="60" as="geometry" />
        </mxCell>
        <mxCell id="aGmHzA7aYkXEzpq6hzWh-42" style="edgeStyle=orthogonalEdgeStyle;rounded=0;orthogonalLoop=1;jettySize=auto;html=1;exitX=0;exitY=0.5;exitDx=0;exitDy=0;entryX=0.5;entryY=1;entryDx=0;entryDy=0;" edge="1" parent="aGmHzA7aYkXEzpq6hzWh-31" source="aGmHzA7aYkXEzpq6hzWh-43" target="aGmHzA7aYkXEzpq6hzWh-41">
          <mxGeometry relative="1" as="geometry" />
        </mxCell>
        <mxCell id="aGmHzA7aYkXEzpq6hzWh-43" value="code[i] = rand()%choices" style="rounded=0;whiteSpace=wrap;html=1;" vertex="1" parent="aGmHzA7aYkXEzpq6hzWh-31">
          <mxGeometry x="160" y="240" width="120" height="60" as="geometry" />
        </mxCell>
        <mxCell id="aGmHzA7aYkXEzpq6hzWh-44" value="End Generate" style="ellipse;whiteSpace=wrap;html=1;" vertex="1" parent="aGmHzA7aYkXEzpq6hzWh-31">
          <mxGeometry x="160" y="320" width="120" height="40" as="geometry" />
        </mxCell>
        <mxCell id="aGmHzA7aYkXEzpq6hzWh-45" value="No" style="text;html=1;strokeColor=none;fillColor=none;align=center;verticalAlign=middle;whiteSpace=wrap;rounded=0;" vertex="1" parent="aGmHzA7aYkXEzpq6hzWh-31">
          <mxGeometry x="270" y="150" width="60" height="30" as="geometry" />
        </mxCell>
        <mxCell id="aGmHzA7aYkXEzpq6hzWh-46" value="Yes" style="text;html=1;strokeColor=none;fillColor=none;align=center;verticalAlign=middle;whiteSpace=wrap;rounded=0;" vertex="1" parent="aGmHzA7aYkXEzpq6hzWh-31">
          <mxGeometry x="170" y="210" width="60" height="30" as="geometry" />
        </mxCell>
      </root>
    </mxGraphModel>
  </diagram>
</mxfile>
